# xmcd CD database file
#
# Track frame offsets:
#	150
#	22195
#	41180
#	70076
#	84917
#	105565
#	129171
#	152266
#	171006
#	190462
#	225958
#	254667
#	265836
#	322927
#
# Disc length: 4671 seconds
#
# Revision: 0
# Processed by: cddbd v1.5.2PL0 Copyright (c) Steve Scherf et al.
# Submitted via: CDex 1.70beta2
#
DISCID=ad123d0e
DTITLE=Sonny Stitt and Hank Jones - Cherokee - Legendary Studio Sessions
DYEAR=2016
DGENRE=Jazz
TTITLE0=Fine and Frisky
TTITLE1=Surfin'
TTITLE2=Lester Leaps In
TTITLE3=Estralita [Estrellita]
TTITLE4=Please Don't Talk About Me When I'm Gone
TTITLE5=Touchy
TTITLE6=Never-Sh!
TTITLE7=My Mother's Eyes
TTITLE8=I'm Getting Sentimental Over You
TTITLE9=Salt and Pepper
TTITLE10=S'posin'
TTITLE11=Theme from Lord of the Flies
TTITLE12=Perdido
TTITLE13=Stardust
EXTD=YEAR: 2016
EXTT0=
EXTT1=
EXTT2=
EXTT3=
EXTT4=
EXTT5=
EXTT6=
EXTT7=
EXTT8=
EXTT9=
EXTT10=
EXTT11=
EXTT12=
EXTT13=
PLAYORDER=
